<svg xmlns="http://www.w3.org/2000/svg" viewBox="0 0 900 520" width="900" height="520">
  <defs>
    <linearGradient id="bg2" x1="0%" y1="0%" x2="0%" y2="100%">
      <stop offset="0%" style="stop-color:#0F1729"/>
      <stop offset="100%" style="stop-color:#1A2440"/>
    </linearGradient>
  </defs>
  <rect width="900" height="520" fill="#0D1117"/>
  <rect width="200" height="520" fill="url(#bg2)"/>
  <text x="20" y="38" fill="#E2E8F0" font-family="monospace" font-size="15" font-weight="bold">🧠 AI Evaluator</text>
  <line x1="10" y1="48" x2="190" y2="48" stroke="#334155" stroke-width="0.5"/>
  <text x="24" y="78" fill="#64748B" font-family="monospace" font-size="12">🧪 New Evaluation</text>
  <rect x="8" y="88" width="184" height="28" rx="6" fill="#4F8EF7" fill-opacity="0.2"/>
  <rect x="14" y="95" width="3" height="14" rx="1" fill="#4F8EF7"/>
  <text x="24" y="107" fill="#93C5FD" font-family="monospace" font-size="12">📊 Dashboard</text>
  <text x="24" y="132" fill="#64748B" font-family="monospace" font-size="12">📜 History</text>
  <text x="24" y="157" fill="#64748B" font-family="monospace" font-size="12">📤 Export</text>
  <!-- Main -->
  <text x="220" y="38" fill="#E2E8F0" font-family="monospace" font-size="18" font-weight="bold">📊 Comparison Dashboard</text>
  <!-- Eval selector -->
  <rect x="220" y="50" width="560" height="26" rx="5" fill="#1E293B" stroke="#334155" stroke-width="1"/>
  <text x="232" y="68" fill="#94A3B8" font-family="monospace" font-size="11">#2 — Explain how transformers work in deep learning. (2026-06-03)</text>
  <!-- Gauges section -->
  <text x="220" y="100" fill="#E2E8F0" font-family="monospace" font-size="13" font-weight="bold">🏆 Weighted Score Rankings</text>
  <!-- Gauge 1 -->
  <rect x="220" y="112" width="180" height="110" rx="8" fill="#1E293B" stroke="#334155" stroke-width="0.5"/>
  <text x="310" y="132" fill="#FFD700" font-family="monospace" font-size="18" text-anchor="middle">🥇</text>
  <text x="310" y="152" fill="#94A3B8" font-family="monospace" font-size="10" text-anchor="middle">Mock-GPT-4o</text>
  <circle cx="310" cy="187" r="30" fill="none" stroke="#334155" stroke-width="8"/>
  <circle cx="310" cy="187" r="30" fill="none" stroke="#4FD17A" stroke-width="8" stroke-dasharray="133 189" stroke-dashoffset="0" transform="rotate(-90 310 187)"/>
  <text x="310" y="192" fill="#4FD17A" font-family="monospace" font-size="13" font-weight="bold" text-anchor="middle">6.96</text>
  <text x="310" y="208" fill="#64748B" font-family="monospace" font-size="9" text-anchor="middle">/10</text>
  <!-- Gauge 2 -->
  <rect x="412" y="112" width="180" height="110" rx="8" fill="#1E293B" stroke="#334155" stroke-width="0.5"/>
  <text x="502" y="132" fill="#C0C0C0" font-family="monospace" font-size="18" text-anchor="middle">🥈</text>
  <text x="502" y="152" fill="#94A3B8" font-family="monospace" font-size="10" text-anchor="middle">Mock-GPT-4o-mini</text>
  <circle cx="502" cy="187" r="30" fill="none" stroke="#334155" stroke-width="8"/>
  <circle cx="502" cy="187" r="30" fill="none" stroke="#F7C84F" stroke-width="8" stroke-dasharray="122 189" stroke-dashoffset="0" transform="rotate(-90 502 187)"/>
  <text x="502" y="192" fill="#F7C84F" font-family="monospace" font-size="13" font-weight="bold" text-anchor="middle">6.80</text>
  <text x="502" y="208" fill="#64748B" font-family="monospace" font-size="9" text-anchor="middle">/10</text>
  <!-- Gauge 3 -->
  <rect x="604" y="112" width="180" height="110" rx="8" fill="#1E293B" stroke="#334155" stroke-width="0.5"/>
  <text x="694" y="132" fill="#CD7F32" font-family="monospace" font-size="18" text-anchor="middle">🥉</text>
  <text x="694" y="152" fill="#94A3B8" font-family="monospace" font-size="10" text-anchor="middle">Mock-Claude-3</text>
  <circle cx="694" cy="187" r="30" fill="none" stroke="#334155" stroke-width="8"/>
  <circle cx="694" cy="187" r="30" fill="none" stroke="#F75E4F" stroke-width="8" stroke-dasharray="111 189" stroke-dashoffset="0" transform="rotate(-90 694 187)"/>
  <text x="694" y="192" fill="#F75E4F" font-family="monospace" font-size="13" font-weight="bold" text-anchor="middle">6.59</text>
  <text x="694" y="208" fill="#64748B" font-family="monospace" font-size="9" text-anchor="middle">/10</text>
  <!-- Radar chart mockup -->
  <text x="220" y="244" fill="#E2E8F0" font-family="monospace" font-size="13" font-weight="bold">📈 Visual Analysis</text>
  <rect x="220" y="254" width="310" height="240" rx="8" fill="#1E293B" stroke="#334155" stroke-width="0.5"/>
  <text x="375" y="274" fill="#94A3B8" font-family="monospace" font-size="10" text-anchor="middle">🕸 Radar Chart</text>
  <!-- Radar polygon for GPT-4o -->
  <polygon points="375,310 415,320 430,360 390,385 335,385 310,360 330,320" 
           fill="#4F8EF7" fill-opacity="0.3" stroke="#4F8EF7" stroke-width="1.5"/>
  <!-- Radar polygon for Claude-3 -->
  <polygon points="375,315 408,323 420,358 385,380 342,378 318,355 336,325" 
           fill="#F75E4F" fill-opacity="0.25" stroke="#F75E4F" stroke-width="1.5"/>
  <!-- Axis labels -->
  <text x="375" y="306" fill="#64748B" font-family="monospace" font-size="8" text-anchor="middle">Accuracy</text>
  <text x="440" y="325" fill="#64748B" font-family="monospace" font-size="8">Completeness</text>
  <text x="438" y="368" fill="#64748B" font-family="monospace" font-size="8">Clarity</text>
  <text x="365" y="400" fill="#64748B" font-family="monospace" font-size="8" text-anchor="middle">Creativity</text>
  <text x="282" y="368" fill="#64748B" font-family="monospace" font-size="8">Helpfulness</text>
  <text x="280" y="325" fill="#64748B" font-family="monospace" font-size="8">Overall</text>
  <!-- Legend -->
  <rect x="310" y="460" width="10" height="8" fill="#4F8EF7" fill-opacity="0.6"/>
  <text x="325" y="469" fill="#94A3B8" font-family="monospace" font-size="9">Mock-GPT-4o</text>
  <rect x="400" y="460" width="10" height="8" fill="#F75E4F" fill-opacity="0.6"/>
  <text x="415" y="469" fill="#94A3B8" font-family="monospace" font-size="9">Mock-Claude-3</text>
  <!-- Score heatmap -->
  <rect x="542" y="254" width="338" height="240" rx="8" fill="#1E293B" stroke="#334155" stroke-width="0.5"/>
  <text x="711" y="274" fill="#94A3B8" font-family="monospace" font-size="10" text-anchor="middle">🌡 Score Heatmap</text>
  <!-- Heatmap cells -->
  <text x="558" y="300" fill="#64748B" font-family="monospace" font-size="8">            Acc  Comp  Clar  Crea  Help  Ovrl</text>
  <!-- GPT-4o row -->
  <text x="558" y="320" fill="#94A3B8" font-family="monospace" font-size="8">Mock-GPT-4o</text>
  <rect x="638" y="308" width="30" height="18" rx="2" fill="#4FD17A" fill-opacity="0.6"/>
  <text x="653" y="321" fill="white" font-family="monospace" font-size="8" text-anchor="middle">6.7</text>
  <rect x="672" y="308" width="30" height="18" rx="2" fill="#4FD17A" fill-opacity="0.55"/>
  <text x="687" y="321" fill="white" font-family="monospace" font-size="8" text-anchor="middle">6.9</text>
  <rect x="706" y="308" width="30" height="18" rx="2" fill="#4FD17A" fill-opacity="0.7"/>
  <text x="721" y="321" fill="white" font-family="monospace" font-size="8" text-anchor="middle">7.7</text>
  <rect x="740" y="308" width="30" height="18" rx="2" fill="#4FD17A" fill-opacity="0.8"/>
  <text x="755" y="321" fill="white" font-family="monospace" font-size="8" text-anchor="middle">8.5</text>
  <rect x="774" y="308" width="30" height="18" rx="2" fill="#F7C84F" fill-opacity="0.7"/>
  <text x="789" y="321" fill="white" font-family="monospace" font-size="8" text-anchor="middle">5.5</text>
  <rect x="808" y="308" width="30" height="18" rx="2" fill="#4FD17A" fill-opacity="0.65"/>
  <text x="823" y="321" fill="white" font-family="monospace" font-size="8" text-anchor="middle">7.4</text>
  <!-- Claude-3 row -->
  <text x="558" y="344" fill="#94A3B8" font-family="monospace" font-size="8">Mock-Claude-3</text>
  <rect x="638" y="332" width="30" height="18" rx="2" fill="#4FD17A" fill-opacity="0.55"/>
  <text x="653" y="345" fill="white" font-family="monospace" font-size="8" text-anchor="middle">6.7</text>
  <rect x="672" y="332" width="30" height="18" rx="2" fill="#4FD17A" fill-opacity="0.5"/>
  <text x="687" y="345" fill="white" font-family="monospace" font-size="8" text-anchor="middle">6.6</text>
  <rect x="706" y="332" width="30" height="18" rx="2" fill="#4FD17A" fill-opacity="0.65"/>
  <text x="721" y="345" fill="white" font-family="monospace" font-size="8" text-anchor="middle">7.5</text>
  <rect x="740" y="332" width="30" height="18" rx="2" fill="#4FD17A" fill-opacity="0.75"/>
  <text x="755" y="345" fill="white" font-family="monospace" font-size="8" text-anchor="middle">8.2</text>
  <rect x="774" y="332" width="30" height="18" rx="2" fill="#F75E4F" fill-opacity="0.6"/>
  <text x="789" y="345" fill="white" font-family="monospace" font-size="8" text-anchor="middle">4.4</text>
  <rect x="808" y="332" width="30" height="18" rx="2" fill="#F7C84F" fill-opacity="0.55"/>
  <text x="823" y="345" fill="white" font-family="monospace" font-size="8" text-anchor="middle">6.6</text>
</svg>